<svg version="1.1" preserveAspectRatio="none" xmlns="http://www.w3.org/2000/svg" width="500" height="500" viewBox="0 0 500 500"><rect width="100%" height="100%" fill="#0A0A0A" fill-opacity="1"/><svg viewBox="40.6066 98.3721 367.28 180" width="333" height="163.19973861903725" x="83.5px" y="168.4001px" xmlns="http://www.w3.org/2000/svg" xmlns:xlink="http://www.w3.org/1999/xlink" preserveAspectRatio="none"><defs></defs><style>.companyName {fill:#E9E9E9;fill-opacity:1;}.icon2 {fill:#7065EF;fill-opacity:1;}.icon3 {fill:#C4C4C4;fill-opacity:1;}.icon3-str {stroke:#C4C4C4;stroke-opacity:1;}.shape {fill:#28208C;fill-opacity:1;}.text {fill:#E9E9E9;fill-opacity:1;}</style><g opacity="1" transform="rotate(0 88.7779 98.3721)">
<svg width="270.9374" height="180" x="88.7779" y="98.3721" version="1.1" preserveAspectRatio="none" viewBox="4.200999736785889 21.96699905395508 89.02999114990234 59.14799880981445">
  <g transform="matrix(1 0 0 1 0 0)" class="shape"><g><circle cx="46.796" cy="22.734" r="0.767"></circle><circle cx="46.796" cy="26.58" r="0.886"></circle><circle cx="46.796" cy="30.425" r="1.004"></circle><circle cx="46.797" cy="34.271" r="1.12"></circle><circle cx="46.796" cy="38.079" r="1.24"></circle><circle cx="46.797" cy="41.963" r="1.356"></circle><circle cx="46.797" cy="45.809" r="1.476"></circle><circle cx="43.004" cy="22.734" r="0.767"></circle><circle cx="43.004" cy="26.58" r="0.886"></circle><circle cx="43.004" cy="30.425" r="1.004"></circle><circle cx="43.004" cy="34.271" r="1.12"></circle><circle cx="43.004" cy="38.079" r="1.24"></circle><circle cx="43.004" cy="41.963" r="1.356"></circle><circle cx="43.004" cy="80.348" r="0.767"></circle><circle cx="43.004" cy="76.57" r="0.886"></circle><circle cx="43.004" cy="72.723" r="1.003"></circle><circle cx="43.004" cy="68.876" r="1.121"></circle><circle cx="43.004" cy="65.031" r="1.239"></circle><circle cx="43.004" cy="61.186" r="1.356"></circle><circle cx="46.796" cy="80.348" r="0.767"></circle><circle cx="46.796" cy="76.57" r="0.886"></circle><circle cx="46.796" cy="72.723" r="1.003"></circle><circle cx="46.797" cy="68.876" r="1.121"></circle><circle cx="46.796" cy="65.031" r="1.239"></circle><circle cx="46.797" cy="61.186" r="1.356"></circle><circle cx="43.004" cy="45.809" r="1.476"></circle><circle cx="46.797" cy="49.447" r="1.476"></circle><circle cx="43.004" cy="49.447" r="1.476"></circle><circle cx="46.797" cy="53.083" r="1.475"></circle><circle cx="43.004" cy="53.083" r="1.475"></circle><circle cx="46.797" cy="57.024" r="1.475"></circle><circle cx="50.594" cy="22.734" r="0.767"></circle><circle cx="50.591" cy="26.58" r="0.886"></circle><circle cx="50.586" cy="30.425" r="1.004"></circle><circle cx="50.582" cy="34.271" r="1.12"></circle><circle cx="50.578" cy="38.079" r="1.24"></circle><circle cx="50.573" cy="41.963" r="1.356"></circle><circle cx="50.57" cy="45.809" r="1.476"></circle><circle cx="50.594" cy="80.348" r="0.767"></circle><circle cx="50.591" cy="76.57" r="0.886"></circle><circle cx="50.586" cy="72.723" r="1.003"></circle><circle cx="50.582" cy="68.876" r="1.121"></circle><circle cx="50.578" cy="65.031" r="1.239"></circle><circle cx="50.573" cy="61.186" r="1.356"></circle><circle cx="50.57" cy="49.447" r="1.476"></circle><circle cx="50.57" cy="53.083" r="1.475"></circle><circle cx="50.57" cy="57.024" r="1.475"></circle><circle cx="54.53" cy="76.57" r="0.886"></circle><circle cx="54.525" cy="72.723" r="1.003"></circle><circle cx="54.522" cy="68.876" r="1.121"></circle><circle cx="54.52" cy="65.031" r="1.239"></circle><circle cx="58.309" cy="49.571" r="1.24"></circle><circle cx="62.145" cy="49.571" r="1.144"></circle><circle cx="65.983" cy="49.571" r="1.049"></circle><circle cx="69.821" cy="49.571" r="0.954"></circle><circle cx="73.659" cy="49.571" r="0.859"></circle><circle cx="77.497" cy="49.571" r="0.763"></circle><circle cx="81.334" cy="49.571" r="0.668"></circle><circle cx="85.172" cy="49.571" r="0.573"></circle><circle cx="89.01" cy="49.571" r="0.479"></circle><circle cx="92.848" cy="49.571" r="0.383"></circle><path d="M35.535,52.165c0.684,0,1.239,0.553,1.239,1.238s-0.556,1.24-1.239,1.24s-1.238-0.555-1.238-1.24   C34.297,52.722,34.852,52.165,35.535,52.165z"></path><circle cx="31.698" cy="53.403" r="1.144"></circle><circle cx="27.713" cy="53.403" r="0.764"></circle><circle cx="23.876" cy="53.403" r="0.668"></circle><circle cx="20.038" cy="53.403" r="0.573"></circle><circle cx="16.2" cy="53.403" r="0.479"></circle><circle cx="12.363" cy="53.403" r="0.383"></circle><circle cx="58.356" cy="57.149" r="1.144"></circle><circle cx="62.194" cy="57.149" r="1.049"></circle><circle cx="66.032" cy="57.149" r="0.953"></circle><circle cx="69.87" cy="57.149" r="0.858"></circle><circle cx="73.707" cy="57.149" r="0.763"></circle><circle cx="77.545" cy="57.149" r="0.669"></circle><circle cx="81.383" cy="57.149" r="0.572"></circle><circle cx="85.221" cy="57.149" r="0.479"></circle><circle cx="89.058" cy="57.149" r="0.383"></circle><circle cx="58.356" cy="60.788" r="1.144"></circle><circle cx="62.194" cy="60.788" r="1.049"></circle><circle cx="66.032" cy="60.788" r="0.953"></circle><path d="M70.729,60.788c0,0.473-0.384,0.857-0.859,0.857c-0.474,0-0.857-0.385-0.857-0.857c0-0.477,0.384-0.859,0.857-0.859   C70.345,59.929,70.729,60.312,70.729,60.788z"></path><circle cx="73.707" cy="60.788" r="0.763"></circle><circle cx="77.545" cy="60.788" r="0.669"></circle><circle cx="81.383" cy="60.788" r="0.572"></circle><circle cx="85.221" cy="60.788" r="0.479"></circle><circle cx="89.058" cy="60.788" r="0.383"></circle><circle cx="58.449" cy="65.032" r="0.668"></circle><circle cx="62.286" cy="65.032" r="0.573"></circle><circle cx="66.124" cy="65.032" r="0.477"></circle><circle cx="69.963" cy="65.031" r="0.384"></circle><circle cx="58.449" cy="68.972" r="0.668"></circle><circle cx="62.286" cy="68.972" r="0.573"></circle><circle cx="66.124" cy="68.972" r="0.477"></circle><circle cx="69.963" cy="68.973" r="0.382"></circle><circle cx="58.449" cy="72.761" r="0.668"></circle><circle cx="62.286" cy="72.761" r="0.573"></circle><circle cx="66.124" cy="72.761" r="0.477"></circle><circle cx="69.963" cy="72.762" r="0.382"></circle><path d="M59.117,76.548c0,0.369-0.3,0.67-0.669,0.67s-0.668-0.301-0.668-0.67c0-0.367,0.299-0.666,0.668-0.666   S59.117,76.181,59.117,76.548z"></path><path d="M62.858,76.548c0,0.318-0.255,0.576-0.572,0.576c-0.316,0-0.573-0.258-0.573-0.576c0-0.314,0.257-0.57,0.573-0.57   C62.604,75.978,62.858,76.233,62.858,76.548z"></path><path d="M66.601,76.548c0,0.264-0.212,0.48-0.478,0.48c-0.263,0-0.477-0.217-0.477-0.48c0-0.262,0.214-0.477,0.477-0.477   C66.389,76.071,66.601,76.286,66.601,76.548z"></path><circle cx="39.236" cy="80.348" r="0.767"></circle><circle cx="35.301" cy="80.349" r="0.573"></circle><circle cx="31.464" cy="80.349" r="0.478"></circle><circle cx="27.627" cy="80.349" r="0.383"></circle><circle cx="58.309" cy="53.209" r="1.239"></circle><circle cx="62.145" cy="53.21" r="1.144"></circle><circle cx="65.983" cy="53.21" r="1.049"></circle><circle cx="69.821" cy="53.21" r="0.954"></circle><circle cx="73.659" cy="53.21" r="0.859"></circle><circle cx="77.497" cy="53.21" r="0.763"></circle><circle cx="81.334" cy="53.21" r="0.668"></circle><circle cx="85.172" cy="53.21" r="0.573"></circle><circle cx="89.01" cy="53.21" r="0.479"></circle><circle cx="54.514" cy="61.186" r="1.356"></circle><circle cx="54.511" cy="49.447" r="1.476"></circle><circle cx="58.309" cy="45.783" r="1.239"></circle><circle cx="62.145" cy="45.782" r="1.144"></circle><circle cx="65.983" cy="45.782" r="1.049"></circle><circle cx="69.821" cy="45.782" r="0.954"></circle><circle cx="73.659" cy="45.782" r="0.859"></circle><circle cx="77.497" cy="45.782" r="0.763"></circle><path d="M82.002,45.782c0,0.369-0.299,0.67-0.667,0.67c-0.369,0-0.669-0.301-0.669-0.67c0-0.367,0.3-0.668,0.669-0.668   C81.703,45.114,82.002,45.415,82.002,45.782z"></path><circle cx="85.172" cy="45.782" r="0.573"></circle><circle cx="89.01" cy="45.782" r="0.479"></circle><circle cx="92.848" cy="45.782" r="0.383"></circle><circle cx="35.441" cy="45.632" r="0.954"></circle><circle cx="31.604" cy="45.632" r="0.858"></circle><circle cx="27.766" cy="45.632" r="0.764"></circle><circle cx="23.928" cy="45.632" r="0.668"></circle><circle cx="20.09" cy="45.632" r="0.573"></circle><circle cx="16.252" cy="45.632" r="0.478"></circle><circle cx="12.414" cy="45.631" r="0.382"></circle><circle cx="35.368" cy="30.323" r="0.574"></circle><circle cx="31.529" cy="30.323" r="0.479"></circle><circle cx="27.692" cy="30.323" r="0.383"></circle><circle cx="35.368" cy="34.265" r="0.689"></circle><circle cx="31.529" cy="34.265" r="0.479"></circle><circle cx="27.692" cy="34.265" r="0.383"></circle><circle cx="35.463" cy="26.687" r="0.478"></circle><path d="M54.52,43.233c-0.686,0-1.24-0.555-1.24-1.24c0-0.682,0.555-1.238,1.24-1.238c0.683,0,1.237,0.557,1.237,1.238   C55.757,42.679,55.202,43.233,54.52,43.233z"></path><circle cx="58.356" cy="41.993" r="1.144"></circle><circle cx="62.194" cy="41.993" r="1.049"></circle><circle cx="54.52" cy="38.079" r="1.24"></circle><circle cx="58.356" cy="38.079" r="1.144"></circle><circle cx="62.194" cy="38.079" r="1.049"></circle><circle cx="66.032" cy="41.993" r="0.953"></circle><path d="M70.729,41.993c0,0.473-0.384,0.861-0.859,0.861c-0.474,0-0.857-0.389-0.857-0.861s0.384-0.859,0.857-0.859   C70.345,41.134,70.729,41.521,70.729,41.993z"></path><circle cx="54.464" cy="34.265" r="1.049"></circle><circle cx="58.302" cy="34.265" r="0.954"></circle><circle cx="62.14" cy="34.265" r="0.859"></circle><circle cx="73.707" cy="41.993" r="0.763"></circle><circle cx="77.545" cy="41.993" r="0.669"></circle><circle cx="66.027" cy="38.079" r="0.667"></circle><circle cx="81.383" cy="41.993" r="0.572"></circle><circle cx="69.864" cy="38.079" r="0.573"></circle><circle cx="85.221" cy="41.993" r="0.479"></circle><circle cx="89.058" cy="41.995" r="0.383"></circle><circle cx="73.6" cy="38.079" r="0.383"></circle><circle cx="35.251" cy="38.079" r="1.144"></circle><circle cx="31.413" cy="38.079" r="1.049"></circle><circle cx="27.58" cy="38.079" r="0.668"></circle><circle cx="23.743" cy="38.079" r="0.573"></circle><circle cx="20.008" cy="38.079" r="0.383"></circle><circle cx="35.251" cy="42.019" r="1.144"></circle><circle cx="31.413" cy="42.019" r="1.049"></circle><circle cx="27.58" cy="42.019" r="0.668"></circle><circle cx="23.743" cy="42.019" r="0.573"></circle><circle cx="20.008" cy="42.021" r="0.383"></circle><circle cx="54.616" cy="30.349" r="1.048"></circle><path d="M59.117,30.349c0,0.369-0.3,0.67-0.669,0.67s-0.668-0.301-0.668-0.67c0-0.367,0.299-0.668,0.668-0.668   S59.117,29.981,59.117,30.349z"></path><circle cx="62.286" cy="30.349" r="0.573"></circle><circle cx="66.021" cy="30.35" r="0.384"></circle><circle cx="54.405" cy="26.712" r="0.573"></circle><circle cx="58.141" cy="26.712" r="0.383"></circle><circle cx="54.511" cy="45.658" r="1.476"></circle><circle cx="54.511" cy="53.083" r="1.475"></circle><circle cx="54.511" cy="57.024" r="1.475"></circle><circle cx="43.004" cy="57.024" r="1.475"></circle><circle cx="39.237" cy="26.58" r="0.886"></circle><circle cx="39.237" cy="30.425" r="1.004"></circle><circle cx="35.368" cy="76.399" r="0.574"></circle><circle cx="31.529" cy="76.399" r="0.479"></circle><circle cx="27.692" cy="76.397" r="0.383"></circle><circle cx="39.237" cy="76.5" r="1.003"></circle><circle cx="39.237" cy="34.271" r="1.12"></circle><circle cx="39.237" cy="38.079" r="1.24"></circle><path d="M34.107,72.329c0-0.629,0.512-1.143,1.143-1.143c0.633,0,1.146,0.514,1.146,1.143c0,0.635-0.513,1.146-1.146,1.146   C34.619,73.476,34.107,72.964,34.107,72.329z"></path><path d="M30.364,72.329c0-0.576,0.47-1.047,1.049-1.047c0.58,0,1.049,0.471,1.049,1.047c0,0.584-0.469,1.053-1.049,1.053   C30.834,73.382,30.364,72.913,30.364,72.329z"></path><path d="M26.912,72.329c0-0.365,0.301-0.666,0.669-0.666c0.369,0,0.667,0.301,0.667,0.666c0,0.371-0.298,0.67-0.667,0.67   C27.213,72.999,26.912,72.7,26.912,72.329z"></path><path d="M23.17,72.329c0-0.314,0.257-0.57,0.573-0.57s0.572,0.256,0.572,0.57c0,0.318-0.256,0.574-0.572,0.574   S23.17,72.647,23.17,72.329z"></path><path d="M20.008,71.948c0.212,0,0.384,0.17,0.384,0.381c0,0.215-0.172,0.385-0.384,0.385c-0.21,0-0.383-0.17-0.383-0.385   C19.625,72.118,19.798,71.948,20.008,71.948z"></path><path d="M39.237,71.093c-0.687,0-1.24,0.553-1.24,1.236c0,0.688,0.554,1.24,1.24,1.24c0.684,0,1.238-0.553,1.238-1.24   C40.476,71.646,39.921,71.093,39.237,71.093z"></path><circle cx="39.237" cy="41.963" r="1.356"></circle><circle cx="35.251" cy="49.446" r="1.144"></circle><circle cx="31.413" cy="49.446" r="1.049"></circle><circle cx="27.58" cy="49.446" r="0.668"></circle><circle cx="23.743" cy="49.446" r="0.573"></circle><circle cx="20.008" cy="49.446" r="0.383"></circle><path d="M39.237,48.032c-0.751,0-1.357,0.609-1.357,1.359c0,0.746,0.606,1.355,1.357,1.355c0.748,0,1.356-0.609,1.356-1.355   C40.594,48.642,39.985,48.032,39.237,48.032z"></path><circle cx="39.237" cy="45.809" r="1.476"></circle><circle cx="39.237" cy="53.404" r="1.474"></circle><circle cx="35.535" cy="57.193" r="1.239"></circle><circle cx="31.698" cy="57.192" r="1.144"></circle><circle cx="27.713" cy="57.192" r="0.764"></circle><circle cx="23.876" cy="57.192" r="0.668"></circle><circle cx="20.038" cy="57.192" r="0.573"></circle><circle cx="16.2" cy="57.192" r="0.479"></circle><circle cx="12.363" cy="57.193" r="0.382"></circle><circle cx="8.422" cy="57.191" r="0.317"></circle><circle cx="4.481" cy="57.193" r="0.28"></circle><circle cx="39.237" cy="57.192" r="1.475"></circle><circle cx="35.535" cy="60.981" r="1.238"></circle><circle cx="31.698" cy="60.981" r="1.144"></circle><path d="M26.949,60.981c0-0.422,0.343-0.762,0.766-0.762c0.42,0,0.762,0.34,0.762,0.762c0,0.424-0.342,0.764-0.762,0.764   C27.292,61.745,26.949,61.405,26.949,60.981z"></path><path d="M23.208,60.983c0-0.369,0.299-0.67,0.668-0.67s0.669,0.299,0.669,0.67c-0.001,0.367-0.3,0.666-0.669,0.666   S23.208,61.351,23.208,60.983z"></path><circle cx="20.038" cy="60.983" r="0.573"></circle><circle cx="16.2" cy="60.981" r="0.479"></circle><circle cx="12.363" cy="60.982" r="0.382"></circle><circle cx="8.422" cy="60.982" r="0.317"></circle><circle cx="4.481" cy="60.982" r="0.28"></circle><circle cx="73.796" cy="65.074" r="0.28"></circle><circle cx="73.796" cy="68.862" r="0.279"></circle><circle cx="39.236" cy="64.923" r="1.238"></circle><circle cx="35.487" cy="64.923" r="1.144"></circle><circle cx="31.503" cy="64.923" r="0.764"></circle><circle cx="27.665" cy="64.923" r="0.669"></circle><circle cx="23.828" cy="64.923" r="0.574"></circle><circle cx="19.989" cy="64.923" r="0.478"></circle><circle cx="16.151" cy="64.923" r="0.383"></circle><circle cx="12.212" cy="64.923" r="0.316"></circle><circle cx="8.271" cy="64.923" r="0.279"></circle><circle cx="39.236" cy="68.711" r="1.239"></circle><circle cx="35.487" cy="68.712" r="1.144"></circle><circle cx="31.503" cy="68.712" r="0.764"></circle><circle cx="27.665" cy="68.712" r="0.669"></circle><circle cx="23.828" cy="68.712" r="0.574"></circle><circle cx="19.989" cy="68.712" r="0.478"></circle><circle cx="16.151" cy="68.712" r="0.383"></circle><circle cx="12.212" cy="68.713" r="0.317"></circle><circle cx="39.237" cy="60.982" r="1.476"></circle></g></g>
</svg>
</g><g opacity="1" transform="rotate(0 197.7305 224.3721)">
<svg width="53.0323" height="16.8" x="197.7305" y="224.3721" version="1.1" preserveAspectRatio="none" viewBox="1.56 -26.8 85.60000000000001 27.12">
  <g transform="matrix(1 0 0 1 0 0)" class="text"><path id="id-6izo4zJp3" d="M5.12-22.84Q6.80-24.68 9.20-25.74Q11.60-26.80 14.16-26.80Q16.72-26.80 18.60-26.24Q20.48-25.68 22-24.72L22-24.72Q25.16-22.68 26.64-19.28L26.64-19.28L23.36-19.28Q22.16-21.44 20.02-22.66Q17.88-23.88 15.16-23.88Q12.44-23.88 10.52-23.06Q8.60-22.24 7.28-20.80L7.28-20.80Q4.56-17.84 4.56-13.24L4.56-13.24Q4.56-8.60 7.24-5.68L7.24-5.68Q10.08-2.60 14.76-2.60L14.76-2.60Q18.52-2.60 21.24-4.92L21.24-4.92Q24.12-7.36 24.12-11.36L24.12-11.36L14.44-11.36L14.44-14.08L26.88-14.08L26.88 0L24.12 0L24.12-4.68Q21.84-1.24 17.80-0.08L17.80-0.08Q16.32 0.32 13.90 0.32Q11.48 0.32 9.08-0.74Q6.68-1.80 5-3.64L5-3.64Q1.56-7.40 1.56-13.24L1.56-13.24Q1.56-19 5.12-22.84L5.12-22.84Z M38.04-22.84Q39.72-24.68 42.12-25.74Q44.52-26.80 47.08-26.80Q49.64-26.80 51.52-26.24Q53.40-25.68 54.92-24.72L54.92-24.72Q58.08-22.68 59.56-19.28L59.56-19.28L56.28-19.28Q55.08-21.44 52.94-22.66Q50.80-23.88 48.08-23.88Q45.36-23.88 43.44-23.06Q41.52-22.24 40.20-20.80L40.20-20.80Q37.48-17.84 37.48-13.24L37.48-13.24Q37.48-8.60 40.16-5.68L40.16-5.68Q43-2.60 47.68-2.60L47.68-2.60Q51.44-2.60 54.16-4.92L54.16-4.92Q57.04-7.36 57.04-11.36L57.04-11.36L47.36-11.36L47.36-14.08L59.80-14.08L59.80 0L57.04 0L57.04-4.68Q54.76-1.24 50.72-0.08L50.72-0.08Q49.24 0.32 46.82 0.32Q44.40 0.32 42-0.74Q39.60-1.80 37.92-3.64L37.92-3.64Q34.48-7.40 34.48-13.24L34.48-13.24Q34.48-19 38.04-22.84L38.04-22.84Z M87.16-26.48L87.16-23.60L77.92-23.60L77.92 0L74.92 0L74.92-23.60L65.68-23.60L65.68-26.48L87.16-26.48Z"/></g>
</svg>
</g><g opacity="1" transform="rotate(0 40.6066 168.3721)">
<svg width="367.28" height="40" x="40.6066" y="168.3721" version="1.1" preserveAspectRatio="none" viewBox="1.56 -31.48 363.24 39.56">
  <g transform="matrix(1 0 0 1 0 0)" class="companyName"><path id="id-D6z1nYkh16" d="M22.24-6.24L22.24-14.44L28.16-14.44L28.16-3.08Q25.88-1.36 22.88-0.44Q19.88 0.48 16.84 0.48L16.84 0.48Q12.48 0.48 9-1.38Q5.52-3.24 3.54-6.54Q1.56-9.84 1.56-14L1.56-14Q1.56-18.16 3.54-21.46Q5.52-24.76 9.04-26.62Q12.56-28.48 16.96-28.48L16.96-28.48Q20.64-28.48 23.64-27.24Q26.64-26 28.68-23.64L28.68-23.64L24.52-19.80Q21.52-22.96 17.28-22.96L17.28-22.96Q14.60-22.96 12.52-21.84Q10.44-20.72 9.28-18.68Q8.12-16.64 8.12-14L8.12-14Q8.12-11.40 9.28-9.36Q10.44-7.32 12.50-6.18Q14.56-5.04 17.20-5.04L17.20-5.04Q20-5.04 22.24-6.24L22.24-6.24Z M39.68-18.68Q40.80-20.24 42.70-21.04Q44.60-21.84 47.08-21.84L47.08-21.84L47.08-16.08Q46.04-16.16 45.68-16.16L45.68-16.16Q43-16.16 41.48-14.66Q39.96-13.16 39.96-10.16L39.96-10.16L39.96 0L33.72 0L33.72-21.52L39.68-21.52L39.68-18.68Z M50.80 0L50.80-21.52L57.04-21.52L57.04 0L50.80 0ZM53.92-24.52Q52.20-24.52 51.12-25.52Q50.04-26.52 50.04-28L50.04-28Q50.04-29.48 51.12-30.48Q52.20-31.48 53.92-31.48L53.92-31.48Q55.64-31.48 56.72-30.52Q57.80-29.56 57.80-28.12L57.80-28.12Q57.80-26.56 56.72-25.54Q55.64-24.52 53.92-24.52L53.92-24.52Z M90.40-21.84Q94.44-21.84 96.82-19.46Q99.20-17.08 99.20-12.32L99.20-12.32L99.20 0L92.96 0L92.96-11.36Q92.96-13.92 91.90-15.18Q90.84-16.44 88.88-16.44L88.88-16.44Q86.68-16.44 85.40-15.02Q84.12-13.60 84.12-10.80L84.12-10.80L84.12 0L77.88 0L77.88-11.36Q77.88-16.44 73.80-16.44L73.80-16.44Q71.64-16.44 70.36-15.02Q69.08-13.60 69.08-10.80L69.08-10.80L69.08 0L62.84 0L62.84-21.52L68.80-21.52L68.80-19.04Q70-20.40 71.74-21.12Q73.48-21.84 75.56-21.84L75.56-21.84Q77.84-21.84 79.68-20.94Q81.52-20.04 82.64-18.32L82.64-18.32Q83.96-20 85.98-20.92Q88-21.84 90.40-21.84L90.40-21.84Z M124.16-6.24L124.16-14.44L130.08-14.44L130.08-3.08Q127.80-1.36 124.80-0.44Q121.80 0.48 118.76 0.48L118.76 0.48Q114.40 0.48 110.92-1.38Q107.44-3.24 105.46-6.54Q103.48-9.84 103.48-14L103.48-14Q103.48-18.16 105.46-21.46Q107.44-24.76 110.96-26.62Q114.48-28.48 118.88-28.48L118.88-28.48Q122.56-28.48 125.56-27.24Q128.56-26 130.60-23.64L130.60-23.64L126.44-19.80Q123.44-22.96 119.20-22.96L119.20-22.96Q116.52-22.96 114.44-21.84Q112.36-20.72 111.20-18.68Q110.04-16.64 110.04-14L110.04-14Q110.04-11.40 111.20-9.36Q112.36-7.32 114.42-6.18Q116.48-5.04 119.12-5.04L119.12-5.04Q121.92-5.04 124.16-6.24L124.16-6.24Z M135.64 0L135.64-29.68L141.88-29.68L141.88 0L135.64 0Z M147.68 0L147.68-21.52L153.92-21.52L153.92 0L147.68 0ZM150.80-24.52Q149.08-24.52 148.00-25.52Q146.92-26.52 146.92-28L146.92-28Q146.92-29.48 148.00-30.48Q149.08-31.48 150.80-31.48L150.80-31.48Q152.52-31.48 153.60-30.52Q154.68-29.56 154.68-28.12L154.68-28.12Q154.68-26.56 153.60-25.54Q152.52-24.52 150.80-24.52L150.80-24.52Z M175.40-29.68L181.64-29.68L181.64 0L175.68 0L175.68-2.48Q173.36 0.32 168.96 0.32L168.96 0.32Q165.92 0.32 163.46-1.04Q161.00-2.40 159.60-4.92Q158.20-7.44 158.20-10.76L158.20-10.76Q158.20-14.08 159.60-16.60Q161.00-19.12 163.46-20.48Q165.92-21.84 168.96-21.84L168.96-21.84Q173.08-21.84 175.40-19.24L175.40-19.24L175.40-29.68ZM170.04-4.80Q172.40-4.80 173.96-6.42Q175.52-8.04 175.52-10.76L175.52-10.76Q175.52-13.48 173.96-15.10Q172.40-16.72 170.04-16.72L170.04-16.72Q167.64-16.72 166.08-15.10Q164.52-13.48 164.52-10.76L164.52-10.76Q164.52-8.04 166.08-6.42Q167.64-4.80 170.04-4.80L170.04-4.80Z M208.48-10.68Q208.48-10.56 208.36-9L208.36-9L192.08-9Q192.52-7 194.16-5.84Q195.80-4.68 198.24-4.68L198.24-4.68Q199.92-4.68 201.22-5.18Q202.52-5.68 203.64-6.76L203.64-6.76L206.96-3.16Q203.92 0.32 198.08 0.32L198.08 0.32Q194.44 0.32 191.64-1.10Q188.84-2.52 187.32-5.04Q185.80-7.56 185.80-10.76L185.80-10.76Q185.80-13.92 187.30-16.46Q188.80-19 191.42-20.42Q194.04-21.84 197.28-21.84L197.28-21.84Q200.44-21.84 203.00-20.48Q205.56-19.12 207.02-16.58Q208.48-14.04 208.48-10.68L208.48-10.68ZM197.32-17.12Q195.20-17.12 193.76-15.92Q192.32-14.72 192.00-12.64L192.00-12.64L202.60-12.64Q202.28-14.68 200.84-15.90Q199.40-17.12 197.32-17.12L197.32-17.12Z M215.12 0L215.12-22.72L206.16-22.72L206.16-28L230.56-28L230.56-22.72L221.60-22.72L221.60 0L215.12 0Z M239.08-18.68Q240.20-20.24 242.10-21.04Q244-21.84 246.48-21.84L246.48-21.84L246.48-16.08Q245.44-16.16 245.08-16.16L245.08-16.16Q242.40-16.16 240.88-14.66Q239.36-13.16 239.36-10.16L239.36-10.16L239.36 0L233.12 0L233.12-21.52L239.08-21.52L239.08-18.68Z M258.76-21.84Q263.76-21.84 266.44-19.46Q269.12-17.08 269.12-12.28L269.12-12.28L269.12 0L263.28 0L263.28-2.68Q261.52 0.32 256.72 0.32L256.72 0.32Q254.24 0.32 252.42-0.52Q250.60-1.36 249.64-2.84Q248.68-4.32 248.68-6.20L248.68-6.20Q248.68-9.20 250.94-10.92Q253.20-12.64 257.92-12.64L257.92-12.64L262.88-12.64Q262.88-14.68 261.64-15.78Q260.40-16.88 257.92-16.88L257.92-16.88Q256.20-16.88 254.54-16.34Q252.88-15.80 251.72-14.88L251.72-14.88L249.48-19.24Q251.24-20.48 253.70-21.16Q256.16-21.84 258.76-21.84L258.76-21.84ZM258.28-3.88Q259.88-3.88 261.12-4.62Q262.36-5.36 262.88-6.80L262.88-6.80L262.88-9L258.60-9Q254.76-9 254.76-6.48L254.76-6.48Q254.76-5.28 255.70-4.58Q256.64-3.88 258.28-3.88L258.28-3.88Z M290.68-29.68L296.92-29.68L296.92 0L290.96 0L290.96-2.48Q288.64 0.32 284.24 0.32L284.24 0.32Q281.20 0.32 278.74-1.04Q276.28-2.40 274.88-4.92Q273.48-7.44 273.48-10.76L273.48-10.76Q273.48-14.08 274.88-16.60Q276.28-19.12 278.74-20.48Q281.20-21.84 284.24-21.84L284.24-21.84Q288.36-21.84 290.68-19.24L290.68-19.24L290.68-29.68ZM285.32-4.80Q287.68-4.80 289.24-6.42Q290.80-8.04 290.80-10.76L290.80-10.76Q290.80-13.48 289.24-15.10Q287.68-16.72 285.32-16.72L285.32-16.72Q282.92-16.72 281.36-15.10Q279.80-13.48 279.80-10.76L279.80-10.76Q279.80-8.04 281.36-6.42Q282.92-4.80 285.32-4.80L285.32-4.80Z M302.68 0L302.68-21.52L308.92-21.52L308.92 0L302.68 0ZM305.80-24.52Q304.08-24.52 303-25.52Q301.92-26.52 301.92-28L301.92-28Q301.92-29.48 303-30.48Q304.08-31.48 305.80-31.48L305.80-31.48Q307.52-31.48 308.60-30.52Q309.68-29.56 309.68-28.12L309.68-28.12Q309.68-26.56 308.60-25.54Q307.52-24.52 305.80-24.52L305.80-24.52Z M327.80-21.84Q331.80-21.84 334.26-19.44Q336.72-17.04 336.72-12.32L336.72-12.32L336.72 0L330.48 0L330.48-11.36Q330.48-13.92 329.36-15.18Q328.24-16.44 326.12-16.44L326.12-16.44Q323.76-16.44 322.36-14.98Q320.96-13.52 320.96-10.64L320.96-10.64L320.96 0L314.72 0L314.72-21.52L320.68-21.52L320.68-19Q321.92-20.36 323.76-21.10Q325.60-21.84 327.80-21.84L327.80-21.84Z M358.88-21.52L364.80-21.52L364.80-3.60Q364.80 2.32 361.72 5.20Q358.64 8.08 352.72 8.08L352.72 8.08Q349.60 8.08 346.80 7.32Q344 6.56 342.16 5.12L342.16 5.12L344.64 0.64Q346 1.76 348.08 2.42Q350.16 3.08 352.24 3.08L352.24 3.08Q355.48 3.08 357.02 1.62Q358.56 0.16 358.56-2.80L358.56-2.80L358.56-3.72Q356.12-1.04 351.76-1.04L351.76-1.04Q348.80-1.04 346.34-2.34Q343.88-3.64 342.44-6Q341-8.36 341-11.44L341-11.44Q341-14.52 342.44-16.88Q343.88-19.24 346.34-20.54Q348.80-21.84 351.76-21.84L351.76-21.84Q356.44-21.84 358.88-18.76L358.88-18.76L358.88-21.52ZM353-6.16Q355.48-6.16 357.06-7.62Q358.64-9.08 358.64-11.44L358.64-11.44Q358.64-13.80 357.06-15.26Q355.48-16.72 353-16.72L353-16.72Q350.52-16.72 348.92-15.26Q347.32-13.80 347.32-11.44L347.32-11.44Q347.32-9.08 348.92-7.62Q350.52-6.16 353-6.16L353-6.16Z"/></g>
</svg>
</g></svg></svg>